<?xml version="1.0" encoding="UTF-8" standalone="no"?>
<!-- Created with Inkscape (http://www.inkscape.org/) -->

<svg
   width="1200mm"
   height="260mm"
   viewBox="0 0 1200 260"
   version="1.1"
   id="svg1"
   inkscape:version="1.4.3 (0d15f75042, 2025-12-25)"
   sodipodi:docname="default-logo.svg"
   xmlns:inkscape="http://www.inkscape.org/namespaces/inkscape"
   xmlns:sodipodi="http://sodipodi.sourceforge.net/DTD/sodipodi-0.dtd"
   xmlns:xlink="http://www.w3.org/1999/xlink"
   xmlns="http://www.w3.org/2000/svg"
   xmlns:svg="http://www.w3.org/2000/svg">
  <sodipodi:namedview
     id="namedview1"
     pagecolor="#ffffff"
     bordercolor="#000000"
     borderopacity="0.25"
     inkscape:showpageshadow="2"
     inkscape:pageopacity="0.0"
     inkscape:pagecheckerboard="0"
     inkscape:deskcolor="#d1d1d1"
     inkscape:document-units="mm"
     inkscape:zoom="0.2099827"
     inkscape:cx="2188.2755"
     inkscape:cy="-76.196754"
     inkscape:window-width="1920"
     inkscape:window-height="1112"
     inkscape:window-x="0"
     inkscape:window-y="0"
     inkscape:window-maximized="1"
     inkscape:current-layer="layer1" />
  <defs
     id="defs1">
    <linearGradient
       id="linearGradient162">
      <stop
         style="stop-color:#006600;stop-opacity:1;"
         offset="0"
         id="stop161" />
      <stop
         style="stop-color:#aaffaa;stop-opacity:1;"
         offset="1"
         id="stop162" />
    </linearGradient>
    <linearGradient
       id="linearGradient160">
      <stop
         style="stop-color:#006600;stop-opacity:1;"
         offset="0"
         id="stop159" />
      <stop
         style="stop-color:#aaffaa;stop-opacity:1;"
         offset="1"
         id="stop160" />
    </linearGradient>
    <linearGradient
       id="linearGradient133">
      <stop
         style="stop-color:#006600;stop-opacity:1;"
         offset="0"
         id="stop132" />
      <stop
         style="stop-color:#aaffaa;stop-opacity:1;"
         offset="1"
         id="stop133" />
    </linearGradient>
    <linearGradient
       id="linearGradient107">
      <stop
         style="stop-color:#008800;stop-opacity:1;"
         offset="0"
         id="stop130" />
      <stop
         style="stop-color:#55cc55;stop-opacity:1;"
         offset="1"
         id="stop131" />
    </linearGradient>
    <linearGradient
       id="linearGradient129">
      <stop
         style="stop-color:#006600;stop-opacity:1;"
         offset="0"
         id="stop128" />
      <stop
         style="stop-color:#99ff55;stop-opacity:1;"
         offset="1"
         id="stop129" />
    </linearGradient>
    <linearGradient
       id="linearGradient127">
      <stop
         style="stop-color:#006600;stop-opacity:1;"
         offset="0"
         id="stop126" />
      <stop
         style="stop-color:#99ff55;stop-opacity:1;"
         offset="1"
         id="stop127" />
    </linearGradient>
    <linearGradient
       id="linearGradient125">
      <stop
         style="stop-color:#006600;stop-opacity:1;"
         offset="0"
         id="stop124" />
      <stop
         style="stop-color:#99ff55;stop-opacity:1;"
         offset="1"
         id="stop125" />
    </linearGradient>
    <linearGradient
       id="linearGradient123">
      <stop
         style="stop-color:#006600;stop-opacity:1;"
         offset="0"
         id="stop122" />
      <stop
         style="stop-color:#99ff55;stop-opacity:1;"
         offset="1"
         id="stop123" />
    </linearGradient>
    <linearGradient
       id="linearGradient121">
      <stop
         style="stop-color:#006600;stop-opacity:1;"
         offset="0"
         id="stop120" />
      <stop
         style="stop-color:#99ff55;stop-opacity:1;"
         offset="1"
         id="stop121" />
    </linearGradient>
    <linearGradient
       id="linearGradient119">
      <stop
         style="stop-color:#006600;stop-opacity:1;"
         offset="0"
         id="stop118" />
      <stop
         style="stop-color:#99ff55;stop-opacity:1;"
         offset="1"
         id="stop119" />
    </linearGradient>
    <linearGradient
       id="linearGradient117">
      <stop
         style="stop-color:#006600;stop-opacity:1;"
         offset="0"
         id="stop116" />
      <stop
         style="stop-color:#99ff55;stop-opacity:1;"
         offset="1"
         id="stop117" />
    </linearGradient>
    <linearGradient
       id="linearGradient115">
      <stop
         style="stop-color:#006600;stop-opacity:1;"
         offset="0"
         id="stop114" />
      <stop
         style="stop-color:#99ff55;stop-opacity:1;"
         offset="1"
         id="stop115" />
    </linearGradient>
    <linearGradient
       id="linearGradient113">
      <stop
         style="stop-color:#006600;stop-opacity:1;"
         offset="0"
         id="stop112" />
      <stop
         style="stop-color:#99ff55;stop-opacity:1;"
         offset="1"
         id="stop113" />
    </linearGradient>
    <linearGradient
       id="linearGradient111">
      <stop
         style="stop-color:#006600;stop-opacity:1;"
         offset="0"
         id="stop110" />
      <stop
         style="stop-color:#99ff55;stop-opacity:1;"
         offset="1"
         id="stop111" />
    </linearGradient>
    <linearGradient
       id="linearGradient109">
      <stop
         style="stop-color:#006600;stop-opacity:1;"
         offset="0"
         id="stop108" />
      <stop
         style="stop-color:#99ff55;stop-opacity:1;"
         offset="1"
         id="stop109" />
    </linearGradient>
    <linearGradient
       id="linearGradient107-1">
      <stop
         style="stop-color:#008800;stop-opacity:1;"
         offset="0"
         id="stop106" />
      <stop
         style="stop-color:#55cc55;stop-opacity:1;"
         offset="1"
         id="stop107" />
    </linearGradient>
    <linearGradient
       id="linearGradient67">
      <stop
         style="stop-color:#006600;stop-opacity:1;"
         offset="0"
         id="stop78" />
      <stop
         style="stop-color:#99ff55;stop-opacity:1;"
         offset="1"
         id="stop79" />
    </linearGradient>
    <linearGradient
       id="linearGradient67-1">
      <stop
         style="stop-color:#004400;stop-opacity:1;"
         offset="0"
         id="stop67" />
      <stop
         style="stop-color:#99ff55;stop-opacity:1;"
         offset="1"
         id="stop68" />
    </linearGradient>
    <rect
       x="55.842421"
       y="55.842421"
       width="4423.9607"
       height="862.45517"
       id="rect1" />
    <rect
       x="55.842421"
       y="55.842421"
       width="4423.9607"
       height="862.45517"
       id="rect2" />
    <rect
       x="55.842421"
       y="55.842421"
       width="4423.9607"
       height="862.45517"
       id="rect3" />
    <filter
       style="color-interpolation-filters:sRGB;"
       inkscape:label="Blur"
       id="filter3"
       x="-0.019958857"
       y="-0.12911974"
       width="1.0399177"
       height="1.2582395">
      <feGaussianBlur
         stdDeviation="2 2"
         result="fbSourceGraphic"
         id="feGaussianBlur3" />
      <feColorMatrix
         result="fbSourceGraphicAlpha"
         in="fbSourceGraphic"
         values="0 0 0 -1 0 0 0 0 -1 0 0 0 0 -1 0 0 0 0 1 0"
         id="feColorMatrix3" />
      <feGaussianBlur
         id="feGaussianBlur4"
         stdDeviation="2 2"
         result="fbSourceGraphic"
         in="fbSourceGraphic" />
      <feColorMatrix
         result="fbSourceGraphicAlpha"
         in="fbSourceGraphic"
         values="0 0 0 -1 0 0 0 0 -1 0 0 0 0 -1 0 0 0 0 1 0"
         id="feColorMatrix4" />
      <feGaussianBlur
         id="feGaussianBlur5"
         stdDeviation="2 2"
         result="fbSourceGraphic"
         in="fbSourceGraphic" />
      <feColorMatrix
         result="fbSourceGraphicAlpha"
         in="fbSourceGraphic"
         values="0 0 0 -1 0 0 0 0 -1 0 0 0 0 -1 0 0 0 0 1 0"
         id="feColorMatrix5" />
      <feGaussianBlur
         id="feGaussianBlur6"
         stdDeviation="2 2"
         result="fbSourceGraphic"
         in="fbSourceGraphic" />
      <feColorMatrix
         result="fbSourceGraphicAlpha"
         in="fbSourceGraphic"
         values="0 0 0 -1 0 0 0 0 -1 0 0 0 0 -1 0 0 0 0 1 0"
         id="feColorMatrix6" />
      <feGaussianBlur
         id="feGaussianBlur7"
         stdDeviation="2 2"
         result="fbSourceGraphic"
         in="fbSourceGraphic" />
      <feColorMatrix
         result="fbSourceGraphicAlpha"
         in="fbSourceGraphic"
         values="0 0 0 -1 0 0 0 0 -1 0 0 0 0 -1 0 0 0 0 1 0"
         id="feColorMatrix7" />
      <feGaussianBlur
         id="feGaussianBlur8"
         stdDeviation="2 2"
         result="fbSourceGraphic"
         in="fbSourceGraphic" />
      <feColorMatrix
         result="fbSourceGraphicAlpha"
         in="fbSourceGraphic"
         values="0 0 0 -1 0 0 0 0 -1 0 0 0 0 -1 0 0 0 0 1 0"
         id="feColorMatrix8" />
      <feGaussianBlur
         id="feGaussianBlur9"
         stdDeviation="2 2"
         result="fbSourceGraphic"
         in="fbSourceGraphic" />
      <feColorMatrix
         result="fbSourceGraphicAlpha"
         in="fbSourceGraphic"
         values="0 0 0 -1 0 0 0 0 -1 0 0 0 0 -1 0 0 0 0 1 0"
         id="feColorMatrix9" />
      <feGaussianBlur
         id="feGaussianBlur10"
         stdDeviation="2 2"
         result="fbSourceGraphic"
         in="fbSourceGraphic" />
      <feColorMatrix
         result="fbSourceGraphicAlpha"
         in="fbSourceGraphic"
         values="0 0 0 -1 0 0 0 0 -1 0 0 0 0 -1 0 0 0 0 1 0"
         id="feColorMatrix10" />
      <feGaussianBlur
         id="feGaussianBlur11"
         stdDeviation="2 2"
         result="fbSourceGraphic"
         in="fbSourceGraphic" />
      <feColorMatrix
         result="fbSourceGraphicAlpha"
         in="fbSourceGraphic"
         values="0 0 0 -1 0 0 0 0 -1 0 0 0 0 -1 0 0 0 0 1 0"
         id="feColorMatrix11" />
      <feGaussianBlur
         id="feGaussianBlur12"
         stdDeviation="2 2"
         result="fbSourceGraphic"
         in="fbSourceGraphic" />
      <feColorMatrix
         result="fbSourceGraphicAlpha"
         in="fbSourceGraphic"
         values="0 0 0 -1 0 0 0 0 -1 0 0 0 0 -1 0 0 0 0 1 0"
         id="feColorMatrix12" />
      <feGaussianBlur
         id="feGaussianBlur13"
         stdDeviation="2 2"
         result="fbSourceGraphic"
         in="fbSourceGraphic" />
      <feColorMatrix
         result="fbSourceGraphicAlpha"
         in="fbSourceGraphic"
         values="0 0 0 -1 0 0 0 0 -1 0 0 0 0 -1 0 0 0 0 1 0"
         id="feColorMatrix13" />
      <feGaussianBlur
         id="feGaussianBlur14"
         stdDeviation="2 2"
         result="fbSourceGraphic"
         in="fbSourceGraphic" />
      <feColorMatrix
         result="fbSourceGraphicAlpha"
         in="fbSourceGraphic"
         values="0 0 0 -1 0 0 0 0 -1 0 0 0 0 -1 0 0 0 0 1 0"
         id="feColorMatrix14" />
      <feGaussianBlur
         id="feGaussianBlur15"
         stdDeviation="2 2"
         result="fbSourceGraphic"
         in="fbSourceGraphic" />
      <feColorMatrix
         result="fbSourceGraphicAlpha"
         in="fbSourceGraphic"
         values="0 0 0 -1 0 0 0 0 -1 0 0 0 0 -1 0 0 0 0 1 0"
         id="feColorMatrix15" />
      <feGaussianBlur
         id="feGaussianBlur16"
         stdDeviation="2 2"
         result="fbSourceGraphic"
         in="fbSourceGraphic" />
      <feColorMatrix
         result="fbSourceGraphicAlpha"
         in="fbSourceGraphic"
         values="0 0 0 -1 0 0 0 0 -1 0 0 0 0 -1 0 0 0 0 1 0"
         id="feColorMatrix16" />
      <feGaussianBlur
         id="feGaussianBlur17"
         stdDeviation="2 2"
         result="fbSourceGraphic"
         in="fbSourceGraphic" />
      <feColorMatrix
         result="fbSourceGraphicAlpha"
         in="fbSourceGraphic"
         values="0 0 0 -1 0 0 0 0 -1 0 0 0 0 -1 0 0 0 0 1 0"
         id="feColorMatrix17" />
      <feGaussianBlur
         id="feGaussianBlur18"
         stdDeviation="2 2"
         result="fbSourceGraphic"
         in="fbSourceGraphic" />
      <feColorMatrix
         result="fbSourceGraphicAlpha"
         in="fbSourceGraphic"
         values="0 0 0 -1 0 0 0 0 -1 0 0 0 0 -1 0 0 0 0 1 0"
         id="feColorMatrix18" />
      <feGaussianBlur
         id="feGaussianBlur19"
         stdDeviation="2 2"
         result="fbSourceGraphic"
         in="fbSourceGraphic" />
      <feColorMatrix
         result="fbSourceGraphicAlpha"
         in="fbSourceGraphic"
         values="0 0 0 -1 0 0 0 0 -1 0 0 0 0 -1 0 0 0 0 1 0"
         id="feColorMatrix19" />
      <feGaussianBlur
         id="feGaussianBlur20"
         stdDeviation="2 2"
         result="blur"
         in="fbSourceGraphic" />
    </filter>
    <linearGradient
       inkscape:collect="always"
       xlink:href="#linearGradient162"
       id="linearGradient157"
       x1="2881.1616"
       y1="475.36169"
       x2="2881.1616"
       y2="334.9082"
       gradientUnits="userSpaceOnUse" />
    <linearGradient
       inkscape:collect="always"
       xlink:href="#linearGradient133"
       id="linearGradient159"
       x1="3712.6965"
       y1="875.72791"
       x2="3712.6965"
       y2="-71.050636"
       gradientUnits="userSpaceOnUse"
       spreadMethod="pad" />
    <linearGradient
       inkscape:collect="always"
       xlink:href="#linearGradient160"
       id="linearGradient161"
       x1="1419.2996"
       y1="900.6441"
       x2="1419.2996"
       y2="-84.312622"
       gradientUnits="userSpaceOnUse" />
  </defs>
  <g
     inkscape:label="Layer 1"
     inkscape:groupmode="layer"
     id="layer1">
    <path
       style="font-weight:800;font-size:613.333px;font-family:Poppins;-inkscape-font-specification:'Poppins, Ultra-Bold';font-variation-settings:'wght' 800;white-space:pre;filter:url(#filter3)"
       d="m 236.77503,596.80151 q -46.6133,0 -83.41328,-15.33333 Q 117.1751,565.52153 95.708442,538.53487 74.85512,510.93489 72.401788,476.58824 H 188.93506 q 2.45333,16.55999 15.33332,25.75999 12.88,9.19999 31.89332,9.19999 14.71999,0 23.30666,-6.13333 8.58666,-6.13333 8.58666,-15.94666 0,-12.87999 -14.10666,-19.01332 -14.10666,-6.13333 -46.61331,-13.49333 -36.79998,-7.35999 -61.3333,-16.55999 -24.53332,-9.19999 -42.93331,-30.05331 -17.786659,-20.85333 -17.786659,-56.42664 0,-30.66665 16.559989,-55.19997 16.55999,-25.14666 48.45331,-39.86665 32.50665,-14.71999 77.89329,-14.71999 67.46663,0 106.10661,33.11998 38.63998,33.11999 44.77331,87.09329 H 270.50835 q -3.06667,-16.55999 -14.71999,-25.14665 -11.04,-9.2 -30.05332,-9.2 -14.71999,0 -22.69332,5.52 -7.36,5.52 -7.36,15.33332 0,12.26666 14.10666,19.01333 14.10666,6.13333 45.38664,12.87999 37.41332,7.97333 61.94664,17.78666 25.14665,9.81333 43.54664,31.89331 19.01332,21.46666 19.01332,58.87997 0,30.05332 -17.78665,53.97331 -17.17333,23.91998 -49.67998,38.02664 -31.89331,13.49333 -75.43996,13.49333 z M 641.5753,490.08157 v 102.42661 h -52.13331 q -131.86659,0 -131.86659,-130.63993 V 348.40164 H 415.25542 V 248.42836 H 457.5754 V 165.01507 H 578.402 v 83.41329 h 62.55996 v 99.97328 H 578.402 v 115.30661 q 0,14.10666 6.13333,20.23999 6.74666,6.13333 22.07999,6.13333 z m 35.57304,-69.91997 q 0,-53.35997 19.01332,-93.22661 19.62666,-39.86665 52.74664,-61.3333 33.73331,-21.46666 74.82663,-21.46666 35.57331,0 61.3333,14.10666 25.75998,14.10666 39.86664,38.02665 V 248.42836 H 1045.1481 V 592.50818 H 924.93487 V 544.6682 q -14.10666,23.91999 -40.47998,38.02665 -25.75998,14.10666 -60.71996,14.10666 -41.09332,0 -74.82663,-21.46666 -33.11998,-21.46665 -52.74664,-61.3333 -19.01332,-40.47997 -19.01332,-93.83995 z m 247.78653,0 q 0,-33.11998 -18.39999,-52.1333 -17.78666,-19.01333 -44.15997,-19.01333 -26.98666,0 -44.77331,19.01333 -17.78666,18.39999 -17.78666,52.1333 0,33.11999 17.78666,52.74664 17.78665,19.01333 44.77331,19.01333 26.37331,0 44.15997,-19.01333 18.39999,-19.01332 18.39999,-52.74664 z m 391.92003,69.91997 v 102.42661 h -52.1333 q -131.8666,0 -131.8666,-130.63993 V 348.40164 h -42.32 v -99.97328 h 42.32 v -83.41329 h 120.8266 v 83.41329 h 62.5599 v 99.97328 h -62.5599 v 115.30661 q 0,14.10666 6.1333,20.23999 6.7467,6.13333 22.08,6.13333 z m 175.4129,-193.81323 q 14.1067,-23.91999 39.8666,-38.02665 25.76,-14.10666 60.72,-14.10666 41.0933,0 74.2133,21.46666 33.7333,21.46665 52.7466,61.3333 19.6267,39.86664 19.6267,93.22661 0,53.35998 -19.6267,93.83995 -19.0133,39.86665 -52.7466,61.3333 -33.12,21.46666 -74.2133,21.46666 -34.96,0 -60.72,-14.10666 -25.1466,-14.10666 -39.8666,-38.02665 V 756.88142 H 1372.0545 V 248.42836 h 120.2133 z m 125.1199,123.89326 q 0,-33.73331 -18.4,-52.1333 -17.7866,-19.01333 -44.1599,-19.01333 -26.3733,0 -44.7733,19.01333 -17.7867,19.01332 -17.7867,52.1333 0,33.73332 17.7867,52.74664 18.4,19.01333 44.7733,19.01333 26.3733,0 44.1599,-19.01333 18.4,-19.62665 18.4,-52.74664 z m 232.4535,-203.62656 q -31.8934,0 -51.52,-17.17332 -19.0133,-17.78666 -19.0133,-44.15998 0,-26.98665 19.0133,-44.77331 19.6266,-17.786653 51.52,-17.786653 31.2799,0 50.2933,17.786653 19.6266,17.78666 19.6266,44.77331 0,26.37332 -19.6266,44.15998 -19.0134,17.17332 -50.2933,17.17332 z m 59.4933,31.89332 V 592.50818 H 1789.1212 V 248.42836 Z m 293.7868,-3.06666 q 59.4933,0 94.4532,39.86664 34.96,39.25331 34.96,106.71995 V 592.50818 H 2212.3213 V 407.89494 q 0,-29.43998 -15.3334,-45.99997 -15.3333,-17.17333 -41.0933,-17.17333 -26.9866,0 -42.32,17.17333 -15.3333,16.55999 -15.3333,45.99997 V 592.50818 H 1978.028 V 248.42836 h 120.2133 V 297.495 q 15.9467,-23.30665 42.9333,-37.41331 26.9867,-14.71999 61.9467,-14.71999 z m 322.6137,-1.22667 q 34.96,0 60.72,14.10666 26.3733,14.10666 40.48,38.02665 v -47.83998 h 120.2133 v 340.39982 q 0,48.45331 -18.4,87.09329 -18.4,39.25331 -57.6533,62.55996 -38.64,23.30666 -98.1333,23.30666 -79.7333,0 -127.5733,-37.41331 -47.84,-37.41332 -54.5866,-101.81328 h 118.3733 q 3.68,16.55999 18.3999,25.75998 14.72,9.2 38.0267,9.2 61.3333,0 61.3333,-68.6933 V 544.6682 q -14.1067,23.91999 -40.48,38.02665 -25.76,14.10666 -60.72,14.10666 -41.0933,0 -74.8266,-21.46666 -33.12,-21.46665 -52.7466,-61.3333 -19.0133,-40.47997 -19.0133,-93.83995 0,-53.35997 19.0133,-93.22661 19.6266,-39.86665 52.7466,-61.3333 33.7333,-21.46666 74.8266,-21.46666 z m 101.2,176.02657 q 0,-33.11998 -18.4,-52.1333 -17.7867,-19.01333 -44.16,-19.01333 -26.9866,0 -44.7733,19.01333 -17.7866,18.39999 -17.7866,52.1333 0,33.11999 17.7866,52.74664 17.7867,19.01333 44.7733,19.01333 26.3733,0 44.16,-19.01333 18.4,-19.01332 18.4,-52.74664 z m 254.5332,47.22665 q -31.8934,0 -51.52,-17.17333 -19.0133,-17.78666 -19.0133,-44.77331 0,-26.98665 19.0133,-44.77331 19.6266,-17.78666 51.52,-17.78666 31.2799,0 50.2933,17.78666 19.6266,17.78666 19.6266,44.77331 0,26.37332 -19.6266,44.15998 -19.0134,17.78666 -50.2933,17.78666 z M 3239.6545,245.3617 q 59.4933,0 94.4532,39.86664 34.96,39.25331 34.96,106.71995 V 592.50818 H 3248.8545 V 407.89494 q 0,-29.43998 -15.3334,-45.99997 -15.3333,-17.17333 -41.0933,-17.17333 -26.9866,0 -42.32,17.17333 -15.3333,16.55999 -15.3333,45.99997 V 592.50818 H 3014.5612 V 248.42836 h 120.2133 V 297.495 q 15.9467,-23.30665 42.9333,-37.41331 26.9867,-14.71999 61.9467,-14.71999 z m 524.4001,171.11991 q 0,14.10665 -1.84,28.21331 H 3534.668 q 1.84,28.21332 15.3333,42.31998 14.1067,13.49333 35.5734,13.49333 30.0533,0 42.9333,-26.98665 h 128.1866 q -7.9734,35.57331 -31.28,63.78663 -22.6933,27.59998 -57.6533,43.54664 -34.96,15.94666 -77.28,15.94666 -50.9066,0 -90.7733,-21.46666 -39.2533,-21.46665 -61.9466,-61.3333 -22.08,-39.86664 -22.08,-93.83995 0,-53.9733 22.08,-93.22661 22.08,-39.86665 61.3333,-61.3333 39.8667,-21.46666 91.3866,-21.46666 50.9067,0 90.16,20.85332 39.2533,20.85332 61.3333,60.10664 22.08,38.63998 22.08,91.38662 z M 3641.388,386.42829 q 0,-22.07999 -14.72,-34.34665 -14.72,-12.87999 -36.8,-12.87999 -22.08,0 -36.1867,12.26666 -14.1066,11.65332 -18.3999,34.95998 z m 386.3994,206.07989 -61.9467,-86.47996 -49.0666,86.47996 h -131.8666 l 114.6933,-178.47991 -119.6,-165.59991 h 134.9333 l 61.9466,86.47996 49.68,-86.47996 h 131.8666 l -117.1466,175.41324 121.4399,168.66658 z m 373.5197,-102.42661 v 102.42661 h -52.1333 q -131.8666,0 -131.8666,-130.63993 V 348.40164 h -42.3199 v -99.97328 h 42.3199 v -83.41329 h 120.8266 v 83.41329 h 62.56 v 99.97328 h -62.56 v 115.30661 q 0,14.10666 6.1334,20.23999 6.7466,6.13333 22.08,6.13333 z"
       id="text2"
       inkscape:label="shadow"
       transform="matrix(0.26458333,0,0,0.26458333,8.4897659,26.663309)"
       aria-label="statping·next" />
    <path
       id="path64"
       style="font-weight:800;font-size:613.333px;font-family:Poppins;-inkscape-font-specification:'Poppins, Ultra-Bold';font-variation-settings:'wght' 800;white-space:pre;fill:url(#linearGradient159);fill-opacity:1"
       inkscape:label="next"
       transform="matrix(0.26458333,0,0,0.26458333,5.843934,23.488307)"
       d="m 3239.6545,245.3617 q 59.4933,0 94.4532,39.86664 34.96,39.25331 34.96,106.71995 V 592.50818 H 3248.8545 V 407.89494 q 0,-29.43998 -15.3334,-45.99997 -15.3333,-17.17333 -41.0933,-17.17333 -26.9866,0 -42.32,17.17333 -15.3333,16.55999 -15.3333,45.99997 V 592.50818 H 3014.5612 V 248.42836 h 120.2133 V 297.495 q 15.9467,-23.30665 42.9333,-37.41331 26.9867,-14.71999 61.9467,-14.71999 z m 524.4001,171.11991 q 0,14.10665 -1.84,28.21331 H 3534.668 q 1.84,28.21332 15.3333,42.31998 14.1067,13.49333 35.5734,13.49333 30.0533,0 42.9333,-26.98665 h 128.1866 q -7.9734,35.57331 -31.28,63.78663 -22.6933,27.59998 -57.6533,43.54664 -34.96,15.94666 -77.28,15.94666 -50.9066,0 -90.7733,-21.46666 -39.2533,-21.46665 -61.9466,-61.3333 -22.08,-39.86664 -22.08,-93.83995 0,-53.9733 22.08,-93.22661 22.08,-39.86665 61.3333,-61.3333 39.8667,-21.46666 91.3866,-21.46666 50.9067,0 90.16,20.85332 39.2533,20.85332 61.3333,60.10664 22.08,38.63998 22.08,91.38662 z M 3641.388,386.42829 q 0,-22.07999 -14.72,-34.34665 -14.72,-12.87999 -36.8,-12.87999 -22.08,0 -36.1867,12.26666 -14.1066,11.65332 -18.3999,34.95998 z m 386.3994,206.07989 -61.9467,-86.47996 -49.0666,86.47996 h -131.8666 l 114.6933,-178.47991 -119.6,-165.59991 h 134.9333 l 61.9466,86.47996 49.68,-86.47996 h 131.8666 l -117.1466,175.41324 121.4399,168.66658 z m 373.5197,-102.42661 v 102.42661 h -52.1333 q -131.8666,0 -131.8666,-130.63993 V 348.40164 h -42.3199 v -99.97328 h 42.3199 v -83.41329 h 120.8266 v 83.41329 h 62.56 v 99.97328 h -62.56 v 115.30661 q 0,14.10666 6.1334,20.23999 6.7466,6.13333 22.08,6.13333 z" />
    <path
       style="font-weight:800;font-size:613.333px;font-family:Poppins;-inkscape-font-specification:'Poppins, Ultra-Bold';font-variation-settings:'wght' 800;white-space:pre;fill:url(#linearGradient157);fill-opacity:1"
       d="m 2881.4682,467.38825 q -31.8934,0 -51.52,-17.17333 -19.0133,-17.78666 -19.0133,-44.77331 0,-26.98665 19.0133,-44.77331 19.6266,-17.78666 51.52,-17.78666 31.2799,0 50.2933,17.78666 19.6266,17.78666 19.6266,44.77331 0,26.37332 -19.6266,44.15998 -19.0134,17.78666 -50.2933,17.78666 z"
       transform="matrix(0.26458333,0,0,0.26458333,5.843934,23.488307)"
       id="path63"
       inkscape:label="dot" />
    <path
       id="text1"
       style="fill:url(#linearGradient161);fill-opacity:1;font-weight:800;font-size:613.333px;font-family:Poppins;-inkscape-font-specification:'Poppins, Ultra-Bold';font-variation-settings:'wght' 800;white-space:pre;display:inline;stroke:none"
       inkscape:label="statping"
       transform="matrix(0.26458333,0,0,0.26458333,5.8439341,23.488307)"
       d="m 236.77503,596.80151 q -46.6133,0 -83.41328,-15.33333 Q 117.1751,565.52153 95.708442,538.53487 74.85512,510.93489 72.401788,476.58824 H 188.93506 q 2.45333,16.55999 15.33332,25.75999 12.88,9.19999 31.89332,9.19999 14.71999,0 23.30666,-6.13333 8.58666,-6.13333 8.58666,-15.94666 0,-12.87999 -14.10666,-19.01332 -14.10666,-6.13333 -46.61331,-13.49333 -36.79998,-7.35999 -61.3333,-16.55999 -24.53332,-9.19999 -42.93331,-30.05331 -17.786659,-20.85333 -17.786659,-56.42664 0,-30.66665 16.559989,-55.19997 16.55999,-25.14666 48.45331,-39.86665 32.50665,-14.71999 77.89329,-14.71999 67.46663,0 106.10661,33.11998 38.63998,33.11999 44.77331,87.09329 H 270.50835 q -3.06667,-16.55999 -14.71999,-25.14665 -11.04,-9.2 -30.05332,-9.2 -14.71999,0 -22.69332,5.52 -7.36,5.52 -7.36,15.33332 0,12.26666 14.10666,19.01333 14.10666,6.13333 45.38664,12.87999 37.41332,7.97333 61.94664,17.78666 25.14665,9.81333 43.54664,31.89331 19.01332,21.46666 19.01332,58.87997 0,30.05332 -17.78665,53.97331 -17.17333,23.91998 -49.67998,38.02664 -31.89331,13.49333 -75.43996,13.49333 z M 641.5753,490.08157 v 102.42661 h -52.13331 q -131.86659,0 -131.86659,-130.63993 V 348.40164 H 415.25542 V 248.42836 H 457.5754 V 165.01507 H 578.402 v 83.41329 h 62.55996 v 99.97328 H 578.402 v 115.30661 q 0,14.10666 6.13333,20.23999 6.74666,6.13333 22.07999,6.13333 z m 35.57304,-69.91997 q 0,-53.35997 19.01332,-93.22661 19.62666,-39.86665 52.74664,-61.3333 33.73331,-21.46666 74.82663,-21.46666 35.57331,0 61.3333,14.10666 25.75998,14.10666 39.86664,38.02665 V 248.42836 H 1045.1481 V 592.50818 H 924.93487 V 544.6682 q -14.10666,23.91999 -40.47998,38.02665 -25.75998,14.10666 -60.71996,14.10666 -41.09332,0 -74.82663,-21.46666 -33.11998,-21.46665 -52.74664,-61.3333 -19.01332,-40.47997 -19.01332,-93.83995 z m 247.78653,0 q 0,-33.11998 -18.39999,-52.1333 -17.78666,-19.01333 -44.15997,-19.01333 -26.98666,0 -44.77331,19.01333 -17.78666,18.39999 -17.78666,52.1333 0,33.11999 17.78666,52.74664 17.78665,19.01333 44.77331,19.01333 26.37331,0 44.15997,-19.01333 18.39999,-19.01332 18.39999,-52.74664 z m 391.92003,69.91997 v 102.42661 h -52.1333 q -131.8666,0 -131.8666,-130.63993 V 348.40164 h -42.32 v -99.97328 h 42.32 v -83.41329 h 120.8266 v 83.41329 h 62.5599 v 99.97328 h -62.5599 v 115.30661 q 0,14.10666 6.1333,20.23999 6.7467,6.13333 22.08,6.13333 z m 175.4129,-193.81323 q 14.1067,-23.91999 39.8666,-38.02665 25.76,-14.10666 60.72,-14.10666 41.0933,0 74.2133,21.46666 33.7333,21.46665 52.7466,61.3333 19.6267,39.86664 19.6267,93.22661 0,53.35998 -19.6267,93.83995 -19.0133,39.86665 -52.7466,61.3333 -33.12,21.46666 -74.2133,21.46666 -34.96,0 -60.72,-14.10666 -25.1466,-14.10666 -39.8666,-38.02665 V 756.88142 H 1372.0545 V 248.42836 h 120.2133 z m 125.1199,123.89326 q 0,-33.73331 -18.4,-52.1333 -17.7866,-19.01333 -44.1599,-19.01333 -26.3733,0 -44.7733,19.01333 -17.7867,19.01332 -17.7867,52.1333 0,33.73332 17.7867,52.74664 18.4,19.01333 44.7733,19.01333 26.3733,0 44.1599,-19.01333 18.4,-19.62665 18.4,-52.74664 z m 232.4535,-203.62656 q -31.8934,0 -51.52,-17.17332 -19.0133,-17.78666 -19.0133,-44.15998 0,-26.98665 19.0133,-44.77331 19.6266,-17.786652 51.52,-17.786652 31.2799,0 50.2933,17.786652 19.6266,17.78666 19.6266,44.77331 0,26.37332 -19.6266,44.15998 -19.0134,17.17332 -50.2933,17.17332 z m 59.4933,31.89332 v 344.0798 h -120.2133 v -344.0798 z m 293.7868,-3.06666 q 59.4933,0 94.4532,39.86664 34.96,39.25331 34.96,106.71995 V 592.50818 H 2212.3213 V 407.89494 q 0,-29.43998 -15.3334,-45.99997 -15.3333,-17.17333 -41.0933,-17.17333 -26.9866,0 -42.32,17.17333 -15.3333,16.55999 -15.3333,45.99997 V 592.50818 H 1978.028 V 248.42836 h 120.2133 V 297.495 q 15.9467,-23.30665 42.9333,-37.41331 26.9867,-14.71999 61.9467,-14.71999 z m 322.6137,-1.22667 q 34.96,0 60.72,14.10666 26.3733,14.10666 40.48,38.02665 v -47.83998 h 120.2133 v 340.39982 q 0,48.45331 -18.4,87.09329 -18.4,39.25331 -57.6533,62.55996 -38.64,23.30666 -98.1333,23.30666 -79.7333,0 -127.5733,-37.41331 -47.84,-37.41332 -54.5866,-101.81328 h 118.3733 q 3.68,16.55999 18.3999,25.75998 14.72,9.2 38.0267,9.2 61.3333,0 61.3333,-68.6933 V 544.6682 q -14.1067,23.91999 -40.48,38.02665 -25.76,14.10666 -60.72,14.10666 -41.0933,0 -74.8266,-21.46666 -33.12,-21.46665 -52.7466,-61.3333 -19.0133,-40.47997 -19.0133,-93.83995 0,-53.35997 19.0133,-93.22661 19.6266,-39.86665 52.7466,-61.3333 33.7333,-21.46666 74.8266,-21.46666 z m 101.2,176.02657 q 0,-33.11998 -18.4,-52.1333 -17.7867,-19.01333 -44.16,-19.01333 -26.9866,0 -44.7733,19.01333 -17.7866,18.39999 -17.7866,52.1333 0,33.11999 17.7866,52.74664 17.7867,19.01333 44.7733,19.01333 26.3733,0 44.16,-19.01333 18.4,-19.01332 18.4,-52.74664 z" />
  </g>
</svg>
